<svg xmlns:dc="http://purl.org/dc/elements/1.1/" xmlns:cc="http://creativecommons.org/ns#" xmlns:rdf="http://www.w3.org/1999/02/22-rdf-syntax-ns#" xmlns:svg="http://www.w3.org/2000/svg" xmlns="http://www.w3.org/2000/svg" xmlns:sodipodi="http://sodipodi.sourceforge.net/DTD/sodipodi-0.dtd" xmlns:inkscape="http://www.inkscape.org/namespaces/inkscape" viewBox="0 0 32 40.00000125" version="1.1" x="0px" y="0px"><g transform="translate(0,-1020.3622)"><path style="" d="M 16 0 C 7.1634443 0 2.6212347e-018 7.1634443 0 16 C 0 24.836556 7.1634443 32 16 32 C 24.836556 32 32 24.836556 32 16 C 32 7.1634443 24.836556 2.6212347e-018 16 0 z M 19.71875 5.78125 L 22.40625 5.78125 C 22.62402 5.78125 22.78123 5.9697 22.78125 6.1875 L 22.78125 25.8125 C 22.78123 26.0303 22.62402 26.21875 22.40625 26.21875 L 19.71875 26.21875 C 19.500982 26.21875 19.312518 26.0303 19.3125 25.8125 L 19.3125 13.1875 L 18.75 13.1875 L 17.71875 13.1875 C 17.227917 14.9833 17.0339 16.80995 17.0625 18.34375 C 17.091358 19.89255 17.34138 21.15155 17.6875 21.84375 C 17.922656 22.31405 17.235148 22.68905 17 22.21875 C 16.808396 21.83555 16.648375 21.3558 16.53125 20.8125 L 16.15625 21.15625 L 16.75 21.75 C 17.1371 22.1217 16.559146 22.6996 16.1875 22.3125 L 15.625 21.71875 L 14.78125 22.5625 C 14.699699 22.6477 14.586173 22.66625 14.46875 22.65625 C 14.348721 22.66745 14.23955 22.6495 14.15625 22.5625 L 13.375 21.75 L 12.65625 22.46875 C 12.564952 22.56425 12.442487 22.61675 12.3125 22.59375 C 12.217761 22.59475 12.10343 22.561 12.03125 22.5 L 11.09375 21.6875 L 10.4375 22.3125 C 10.287267 22.4675 10.063237 22.461 9.90625 22.3125 C 9.605335 22.619 9.09284 22.30605 9.25 21.90625 C 9.761664 20.44445 10.248912 16.76775 9.25 13.15625 C 9.22848 13.08335 9.22848 13.0105 9.25 12.9375 C 9.197709 12.7748 9.236377 12.56875 9.375 12.46875 L 9.375 12.40625 L 9.5625 12.40625 C 9.58234 12.40725 9.60489 12.40625 9.625 12.40625 L 9.65625 12.40625 L 10 12.40625 L 16.96875 12.40625 C 16.98151 12.40725 17.01835 12.40665 17.03125 12.40625 L 17.09375 12.40625 L 18.75 12.40625 L 19.3125 12.40625 L 19.3125 6.1875 C 19.312525 5.9697 19.500982 5.78125 19.71875 5.78125 z M 10.5625 13.1875 L 10.9375 13.5625 L 11.3125 13.1875 L 10.5625 13.1875 z M 13 13.1875 L 13.34375 13.53125 L 13.6875 13.1875 L 13 13.1875 z M 15.375 13.1875 L 15.71875 13.5625 L 16.09375 13.1875 L 15.375 13.1875 z M 12.1875 13.46875 L 11.5 14.125 L 12.125 14.75 L 12.78125 14.09375 L 12.1875 13.46875 z M 14.53125 13.46875 L 13.90625 14.09375 L 14.5625 14.75 L 15.1875 14.125 L 14.53125 13.46875 z M 16.8125 13.59375 L 16.28125 14.125 L 16.625 14.4375 C 16.678995 14.1558 16.74469 13.87795 16.8125 13.59375 z M 10.25 13.96875 C 10.26475 14.03985 10.26747 14.1165 10.28125 14.1875 L 10.375 14.125 L 10.25 13.96875 z M 13.34375 14.65625 L 12.6875 15.3125 L 13.34375 15.96875 L 14 15.3125 L 13.34375 14.65625 z M 10.9375 14.6875 L 10.4375 15.15625 C 10.45276 15.26695 10.45572 15.35885 10.46875 15.46875 L 10.9375 15.90625 L 11.5625 15.3125 L 10.9375 14.6875 z M 15.75 14.6875 L 15.125 15.3125 L 15.71875 15.90625 L 16.34375 15.28125 L 15.75 14.6875 z M 12.125 15.84375 L 11.46875 16.46875 L 12.15625 17.15625 L 12.78125 16.53125 L 12.125 15.84375 z M 14.5625 15.875 L 13.90625 16.53125 L 14.5 17.125 L 15.15625 16.46875 L 14.5625 15.875 z M 16.34375 16.40625 L 16.28125 16.46875 L 16.34375 16.53125 C 16.34703 16.49055 16.33995 16.44725 16.34375 16.40625 z M 10.90625 17.03125 L 10.625 17.34375 C 10.6281 17.53345 10.6276 17.6908 10.625 17.875 L 11.03125 18.3125 L 11.625 17.71875 L 10.90625 17.03125 z M 15.71875 17.03125 L 15.0625 17.6875 L 15.6875 18.3125 L 16.28125 17.71875 C 16.28175 17.67105 16.27995 17.64175 16.28125 17.59375 L 15.71875 17.03125 z M 13.34375 17.09375 L 12.71875 17.71875 L 13.3125 18.3125 L 13.9375 17.6875 L 13.34375 17.09375 z M 14.5 18.25 L 13.875 18.875 L 14.5 19.5 L 15.125 18.875 L 14.5 18.25 z M 12.15625 18.28125 L 11.59375 18.875 L 12.1875 19.46875 L 12.75 18.875 L 12.15625 18.28125 z M 16.28125 18.8125 L 16.25 18.875 L 16.3125 18.9375 C 16.3099 18.9022 16.28315 18.8485 16.28125 18.8125 z M 11.03125 19.4375 L 10.46875 20 C 10.46497 20.028 10.4413 20.06675 10.4375 20.09375 L 11.03125 20.59375 L 11.625 20 L 11.03125 19.4375 z M 13.3125 19.4375 L 12.75 20 L 13.375 20.625 L 13.9375 20.0625 L 13.3125 19.4375 z M 15.6875 19.4375 L 15.0625 20.0625 L 15.625 20.59375 L 16.21875 19.96875 L 15.6875 19.4375 z M 12.1875 20.5625 L 11.65625 21.09375 L 12.3125 21.6875 L 12.8125 21.1875 L 12.1875 20.5625 z M 14.5 20.59375 L 13.90625 21.1875 L 14.46875 21.75 L 15.0625 21.15625 L 14.5 20.59375 z M 10.28125 21 C 10.25037 21.1479 10.22101 21.3029 10.1875 21.4375 L 10.46875 21.15625 L 10.28125 21 z " transform="translate(-5e-7,1020.3622)" fill="#000000" fill-opacity="1" stroke="none"/></g><text x="0" y="47.000001" fill="#000000" font-size="5px" font-weight="bold" font-family="'Helvetica Neue', Helvetica, Arial-Unicode, Arial, Sans-serif">Created by Chameleon Design</text><text x="0" y="52.000001" fill="#000000" font-size="5px" font-weight="bold" font-family="'Helvetica Neue', Helvetica, Arial-Unicode, Arial, Sans-serif">from the Noun Project</text></svg>