<svg xmlns:dc="http://purl.org/dc/elements/1.1/" xmlns:cc="http://creativecommons.org/ns#" xmlns:rdf="http://www.w3.org/1999/02/22-rdf-syntax-ns#" xmlns:svg="http://www.w3.org/2000/svg" xmlns="http://www.w3.org/2000/svg" xmlns:sodipodi="http://sodipodi.sourceforge.net/DTD/sodipodi-0.dtd" xmlns:inkscape="http://www.inkscape.org/namespaces/inkscape" version="1.1" x="0px" y="0px" viewBox="0 0 32 40" enable-background="new 0 0 32 32" xml:space="preserve"><path style="" d="M 8,25.288 8,29.5 C 8,29.776 8.225,30 8.5,30 8.689,30 8.863,29.893 8.947,29.724 L 11,25.618 l 2.053,4.105 c 0.123,0.247 0.424,0.347 0.671,0.224 0.097,-0.049 0.175,-0.127 0.224,-0.224 L 16,25.618 l 2.053,4.105 c 0.123,0.247 0.424,0.347 0.671,0.224 0.097,-0.049 0.175,-0.127 0.224,-0.224 L 21,25.618 l 2.053,4.105 c 0.123,0.247 0.424,0.347 0.671,0.224 C 23.893,29.862 24,29.689 24,29.5 l 0,-4.212 C 24,19.791 25.752,14.435 29,10 l -1.227,0 C 24.665,14.493 23,19.826 23,25.288 l 0,2.094 -1.553,-3.105 c -0.123,-0.247 -0.424,-0.347 -0.67,-0.224 -0.098,0.049 -0.176,0.127 -0.225,0.224 L 18.5,28.382 16.447,24.277 c -0.123,-0.247 -0.424,-0.347 -0.67,-0.224 -0.098,0.049 -0.176,0.127 -0.225,0.224 L 13.5,28.382 11.447,24.277 c -0.123,-0.247 -0.424,-0.347 -0.67,-0.224 -0.098,0.049 -0.176,0.127 -0.225,0.224 L 9,27.382 9,25.288 C 9,19.826 7.336,14.493 4.228,10 L 3,10 c 3.249,4.436 5,9.791 5,15.288 z" fill="#000000"/><path style="" d="M 16,2 C 12.175412,2 8.9421802,4.5249945 7.875,8 L 2.75,8 C 2.336,8 2,8.336 2,8.75 2,9.164 2.336,9.5 2.75,9.5 l 4.8125,0 C 7.5242685,9.8270865 7.5,10.162658 7.5,10.5 c 0,4.694 3.806,8.5 8.5,8.5 4.695,0 8.5,-3.806 8.5,-8.5 0,-0.337342 -0.02428,-0.6729135 -0.0625,-1 l 4.8125,0 C 29.664,9.5 30,9.164 30,8.75 30,8.336 29.664,8 29.25,8 L 24.125,8 C 23.058038,4.5249945 19.825403,2 16,2 z m 0,1 c 0.74244,0 1.447839,0.1116362 2.125,0.3125 0.0093,0.1365988 -0.05104,0.2802385 -0.15625,0.375 C 17.858312,3.7873632 17.74119,3.8767493 17.625,3.96875 16.955125,3.591519 16.255778,3.2624629 15.5,3.03125 15.666724,3.0200865 15.830405,3 16,3 z M 13.09375,3.59375 C 13.489174,3.624946 13.861171,3.671796 14.25,3.75 15.113506,3.923896 15.933455,4.2212163 16.6875,4.59375 15.854863,5.0528396 14.926042,5.3479552 13.96875,5.4375 12.102375,5.612325 10.394393,6.4118046 9.0625,7.6875 9.8113096,5.8493073 11.270436,4.3698412 13.09375,3.59375 z m 6,0.09375 c 0.505776,0.2309584 0.999567,0.5112027 1.4375,0.84375 -0.364749,0.2366161 -0.706877,0.5012405 -1.0625,0.75 -0.304008,-0.2676364 -0.603475,-0.5166603 -0.9375,-0.75 0.314079,-0.2240164 0.470148,-0.4880486 0.5625,-0.84375 z m -1.375,1.5 c 0.332271,0.2177561 0.636512,0.4335943 0.9375,0.6875 -0.908888,0.6728708 -1.780046,1.3775799 -2.625,2.125 l -5.8125,0 c 1.078963,-0.8775717 2.400672,-1.4275587 3.84375,-1.5625 1.299139,-0.1214362 2.571031,-0.541289 3.65625,-1.25 z M 21.3125,5.21875 C 21.729669,5.6385978 22.097246,6.1163745 22.40625,6.625 21.895755,6.5146057 21.364841,6.5717963 20.875,6.75 20.658525,6.4720546 20.430086,6.2248258 20.1875,5.96875 c 0.37139,-0.2564226 0.743883,-0.5069208 1.125,-0.75 z M 19.375,6.5625 C 19.590567,6.7843201 19.806543,7.0096253 20,7.25 19.692086,7.535334 19.63482,7.6182725 19.40625,8 l -1.875,0 C 18.12713,7.5051256 18.748713,7.0204613 19.375,6.5625 z m 2.5625,1 C 22.316475,7.5870215 22.67765,7.7427021 22.96875,8 L 21.6875,8 C 21.615103,7.8758016 21.545748,7.7463014 21.46875,7.625 21.627486,7.5882695 21.779432,7.5522722 21.9375,7.5625 z M 8.84375,9.5 l 5.59375,0 c -1.65737,1.643693 -3.170678,3.438837 -4.5,5.375 C 9.0457467,13.641097 8.5,12.138767 8.5,10.5 8.5,10.323833 8.5193024,10.141883 8.53125,9.96875 8.6272314,9.8065018 8.7365041,9.6533493 8.84375,9.5 z m 7,0 2.875,0 c -0.401673,1.076438 -0.644877,2.219512 -0.6875,3.375 -0.08179,2.181837 -1.397886,4.092092 -3.34375,5 -1.60368,-0.284677 -3.047199,-1.057135 -4.125,-2.1875 1.524049,-2.260218 3.303917,-4.330518 5.28125,-6.1875 z m 3.9375,0 1.5625,0 c 0.720439,1.647311 1.007743,3.509327 0.71875,5.40625 -1.289238,1.755755 -3.335198,2.939971 -5.65625,3.0625 1.555929,-1.217951 2.549961,-3.050775 2.625,-5.0625 0.04425,-1.179 0.292805,-2.32618 0.75,-3.40625 z m 2.625,0 1,0 c 0.04517,0.3320777 0.09375,0.653503 0.09375,1 0,0.785167 -0.120268,1.539986 -0.34375,2.25 -0.07106,-1.138585 -0.341641,-2.222785 -0.75,-3.25 z" fill="#000000"/><text x="0" y="47" fill="#000000" font-size="5px" font-weight="bold" font-family="'Helvetica Neue', Helvetica, Arial-Unicode, Arial, Sans-serif">Created by Pham Duy Phuong Hung</text><text x="0" y="52" fill="#000000" font-size="5px" font-weight="bold" font-family="'Helvetica Neue', Helvetica, Arial-Unicode, Arial, Sans-serif">from the Noun Project</text></svg>